name ./resultDataOpenSim/trcMotMarkerGrf/sub09/grf-02-05.mot
datacolumns 19
datarows 17
range 0.94000000 1.00400000
endheader

                time	     ground_force_vx	     ground_force_vy	     ground_force_vz	     ground_force_px	     ground_force_py	     ground_force_pz	   l_ground_force_vx	   l_ground_force_vy	   l_ground_force_vz	   l_ground_force_px	   l_ground_force_py	   l_ground_force_pz	     ground_torque_x	     ground_torque_y	     ground_torque_z	   l_ground_torque_x	   l_ground_torque_y	   l_ground_torque_z	
          0.94000000	          0.00000000	          0.00000000	          0.00000000	          0.00000000	          0.00000000	          0.00000000	        -20.29529103	        450.01751345	         14.56558815	          0.11073089	         -0.02500000	          0.02423847	          0.00000000	          0.00000000	          0.00000000	          0.00000000	         -1.72683439	          0.00000000	
          0.94400000	          0.00000000	          0.00000000	          0.00000000	          0.00000000	          0.00000000	          0.00000000	        -18.96334855	        455.59699028	         14.70711969	          0.11105670	         -0.02500000	          0.02447898	          0.00000000	          0.00000000	          0.00000000	          0.00000000	         -1.83179669	          0.00000000	
          0.94800000	          0.00000000	          0.00000000	          0.00000000	          0.00000000	          0.00000000	          0.00000000	        -17.52374642	        460.99138954	         14.72965786	          0.11140656	         -0.02500000	          0.02471401	          0.00000000	          0.00000000	          0.00000000	          0.00000000	         -1.95633604	          0.00000000	
          0.95200000	          0.00000000	          0.00000000	          0.00000000	          0.00000000	          0.00000000	          0.00000000	        -16.00812261	        466.22381318	         14.64831651	          0.11183635	         -0.02500000	          0.02497418	          0.00000000	          0.00000000	          0.00000000	          0.00000000	         -2.10170462	          0.00000000	
          0.95600000	          0.00000000	          0.00000000	          0.00000000	          0.00000000	          0.00000000	          0.00000000	        -14.41948625	        471.35249203	         14.47449789	          0.11237620	         -0.02500000	          0.02527545	          0.00000000	          0.00000000	          0.00000000	          0.00000000	         -2.26912428	          0.00000000	
          0.96000000	          0.00000000	          0.00000000	          0.00000000	          0.00000000	          0.00000000	          0.00000000	        -12.71360186	        476.45083207	         14.21336383	          0.11301286	         -0.02500000	          0.02560692	          0.00000000	          0.00000000	          0.00000000	          0.00000000	         -2.45969418	          0.00000000	
          0.96400000	          0.00000000	          0.00000000	          0.00000000	          0.00000000	          0.00000000	          0.00000000	        -10.80390526	        481.60278390	         13.87146504	          0.11369931	         -0.02500000	          0.02594220	          0.00000000	          0.00000000	          0.00000000	          0.00000000	         -2.67405089	          0.00000000	
          0.96800000	          0.00000000	          0.00000000	          0.00000000	          0.00000000	          0.00000000	          0.00000000	         -8.59080123	        486.90343246	         13.46581257	          0.11438296	         -0.02500000	          0.02625426	          0.00000000	          0.00000000	          0.00000000	          0.00000000	         -2.91187362	          0.00000000	
          0.97200000	          0.00000000	          0.00000000	          0.00000000	          0.00000000	          0.00000000	          0.00000000	         -5.99342436	        492.44554293	         13.02530706	          0.11502756	         -0.02500000	          0.02652219	          0.00000000	          0.00000000	          0.00000000	          0.00000000	         -3.17136365	          0.00000000	
          0.97600000	          0.00000000	          0.00000000	          0.00000000	          0.00000000	          0.00000000	          0.00000000	         -2.95788047	        498.28032573	         12.58973728	          0.11560780	         -0.02500000	          0.02673976	          0.00000000	          0.00000000	          0.00000000	          0.00000000	         -3.44886078	          0.00000000	
          0.98000000	          0.00000000	          0.00000000	          0.00000000	          0.00000000	          0.00000000	          0.00000000	          0.54859859	        504.36878166	         12.21306490	          0.11610003	         -0.02500000	          0.02692129	          0.00000000	          0.00000000	          0.00000000	          0.00000000	         -3.73882885	          0.00000000	
          0.98400000	          0.00000000	          0.00000000	          0.00000000	          0.00000000	          0.00000000	          0.00000000	          4.52983640	        510.57861283	         11.96204601	          0.11650513	         -0.02500000	          0.02709787	          0.00000000	          0.00000000	          0.00000000	          0.00000000	         -4.03440680	          0.00000000	
          0.98800000	          0.00000000	          0.00000000	          0.00000000	          0.00000000	          0.00000000	          0.00000000	          8.94959014	        516.74526325	         11.90314308	          0.11685748	         -0.02500000	          0.02730325	          0.00000000	          0.00000000	          0.00000000	          0.00000000	         -4.32847729	          0.00000000	
          0.99200000	          0.00000000	          0.00000000	          0.00000000	          0.00000000	          0.00000000	          0.00000000	         13.74312775	        522.71361725	         12.08480935	          0.11718225	         -0.02500000	          0.02754029	          0.00000000	          0.00000000	          0.00000000	          0.00000000	         -4.61487921	          0.00000000	
          0.99600000	          0.00000000	          0.00000000	          0.00000000	          0.00000000	          0.00000000	          0.00000000	         18.84472171	        528.32621175	         12.52262725	          0.11747448	         -0.02500000	          0.02777182	          0.00000000	          0.00000000	          0.00000000	          0.00000000	         -4.88921388	          0.00000000	
          1.00000000	          0.00000000	          0.00000000	          0.00000000	          0.00000000	          0.00000000	          0.00000000	         24.20924967	        533.46165279	         13.19282634	          0.11772390	         -0.02500000	          0.02794448	          0.00000000	          0.00000000	          0.00000000	          0.00000000	         -5.14882402	          0.00000000	
          1.00400000	          0.00000000	          0.00000000	          0.00000000	          0.00000000	          0.00000000	          0.00000000	         29.81089980	        538.14300899	         14.04366837	          0.11791838	         -0.02500000	          0.02802558	          0.00000000	          0.00000000	          0.00000000	          0.00000000	         -5.39199749	          0.00000000	
